<!DOCTYPE svg PUBLIC "-//W3C//DTD SVG 1.1//EN" "http://www.w3.org/Graphics/SVG/1.1/DTD/svg11.dtd">
<!-- Uploaded to: SVG Repo, www.svgrepo.com, Transformed by: SVG Repo Mixer Tools -->
<svg width="100px" height="100px" viewBox="0 0 16 16" version="1.1" xmlns="http://www.w3.org/2000/svg" xmlns:xlink="http://www.w3.org/1999/xlink" fill="#000000">
<g id="SVGRepo_bgCarrier" stroke-width="0"/>
<g id="SVGRepo_tracerCarrier" stroke-linecap="round" stroke-linejoin="round"/>
<g id="SVGRepo_iconCarrier"> <path fill="#444" d="M15 5v7h-14v-7h14zM16 4h-16v9h16v-9z"/> <path fill="#444" d="M4 10h8v1h-8v-1z"/> <path fill="#444" d="M2 10h1v1h-1v-1z"/> <path fill="#444" d="M13 10h1v1h-1v-1z"/> <path fill="#444" d="M11 8h1v1h-1v-1z"/> <path fill="#444" d="M9 8h1v1h-1v-1z"/> <path fill="#444" d="M7 8h1v1h-1v-1z"/> <path fill="#444" d="M5 8h1v1h-1v-1z"/> <path fill="#444" d="M3 8h1v1h-1v-1z"/> <path fill="#444" d="M10 6h1v1h-1v-1z"/> <path fill="#444" d="M12 6v1h1v2h1v-3z"/> <path fill="#444" d="M8 6h1v1h-1v-1z"/> <path fill="#444" d="M6 6h1v1h-1v-1z"/> <path fill="#444" d="M4 6h1v1h-1v-1z"/> <path fill="#444" d="M2 6h1v1h-1v-1z"/> </g>
</svg>